<svg xmlns="http://www.w3.org/2000/svg" viewBox="0 0 770.59711 422.125" height="422.125" width="770.59711" lang="zh-Hans">
<g font-size="12" text-anchor="middle" transform="translate(-19.402882 -18.875001)">
<g font-family="Arial,sans-serif">
<text x="80.5" y="37.5">1</text>
<text x="120.5" y="37.5">2</text>
<text x="160.5" y="37.5">3</text>
<text x="200.5" y="37.5">4</text>
<text x="240.5" y="37.5">5</text>
<text x="280.5" y="37.5">6</text>
<text x="320.5" y="37.5">7</text>
<text x="360.5" y="37.5">8</text>
<text x="400.5" y="37.5">9</text>
<text x="440.5" y="37.5">10</text>
<text x="480.5" y="37.5">11</text>
<text x="520.5" y="37.5">12</text>
<text x="560.5" y="37.5">13</text>
<text x="600.5" y="37.5">14</text>
<text x="640.5" y="37.5">15</text>
<text x="680.5" y="37.5">16</text>
<text x="720.5" y="37.5">17</text>
<text x="760.5" y="37.5">18</text>
<text x="41.5" y="77.5">1</text>
<text x="41.5" y="117.5">2</text>
<text x="41.5" y="157.5">3</text>
<text x="41.5" y="197.5">4</text>
<text x="41.5" y="237.5">5</text>
<text x="41.5" y="277.5">6</text>
<text x="41.5" y="317.5">7</text>
</g>
<text font-family="sans-serif" x="41.5" y="36.5">&#x65CF;</text>
<text font-family="sans-serif" x="46.5" y="51.5">&#x5468;&#x671F;</text>
</g>
<path d="m164.09712 371.625v-36h36v36z" fill="#ffbfff" stroke="#000"/>
<path d="m204.09712 371.625v-36h36v36z" fill="#ffbfff" stroke="#000"/>
<path d="m244.09712 371.625v-36h36v36z" fill="#ffbfff" stroke="#000"/>
<path d="m284.09712 371.625v-36h36v36z" fill="#ffbfff" stroke="#000"/>
<path d="m324.09712 371.625v-36h36v36z" fill="#ffbfff" stroke="#000"/>
<path d="m364.09712 371.625v-36h36v36z" fill="#ffbfff" stroke="#000"/>
<path d="m404.09712 371.625v-36h36v36z" fill="#ffbfff" stroke="#000"/>
<path d="m444.09712 371.625v-36h36v36z" fill="#ffbfff" stroke="#000"/>
<path d="m484.09712 371.625v-36h36v36z" fill="#ffbfff" stroke="#000"/>
<path d="m524.09712 371.625v-36h36v36z" fill="#ffbfff" stroke="#000"/>
<path d="m564.09712 371.625v-36h36v36z" fill="#ffbfff" stroke="#000"/>
<path d="m604.09712 371.625v-36h36v36z" fill="#ffbfff" stroke="#000"/>
<path d="m644.09712 371.625v-36h36v36z" fill="#ffbfff" stroke="#000"/>
<path d="m684.09712 371.625v-36h36v36z" fill="#ffbfff" stroke="#000"/>
<path d="m724.09712 371.625v-36h36v36z" fill="#ffbfff" stroke="#000"/>
<path d="m164.09712 411.625v-36h36v36z" fill="#f9c" stroke="#000"/>
<path d="m204.09712 411.625v-36h36v36z" fill="#f9c" stroke="#000"/>
<path d="m244.09712 411.625v-36h36v36z" fill="#f9c" stroke="#000"/>
<path d="m284.09712 411.625v-36h36v36z" fill="#f9c" stroke="#000"/>
<path d="m324.09712 411.625v-36h36v36z" fill="#f9c" stroke="#000"/>
<path d="m364.09712 411.625v-36h36v36z" fill="#f9c" stroke="#000"/>
<path d="m404.09712 411.625v-36h36v36z" fill="#f9c" stroke="#000"/>
<path d="m444.09712 411.625v-36h36v36z" fill="#f9c" stroke="#000"/>
<path d="m484.09712 411.625v-36h36v36z" fill="#f9c" stroke="#000"/>
<path d="m524.09712 411.625v-36h36v36z" fill="#f9c" stroke="#000"/>
<path d="m564.09712 411.625v-36h36v36z" fill="#f9c" stroke="#000"/>
<path d="m604.09712 411.625v-36h36v36z" fill="#f9c" stroke="#000"/>
<path d="m644.09712 411.625v-36h36v36z" fill="#f9c" stroke="#000"/>
<path d="m684.09712 411.625v-36h36v36z" fill="#f9c" stroke="#000"/>
<path d="m724.09712 411.625v-36h36v36z" fill="#f9c" stroke="#000"/>
<text font-family="Times,serif" font-size="11" x="166.59712" y="349.625">57</text>
<text font-family="Times,serif" font-size="11" x="206.59712" y="349.625">58</text>
<text font-family="Times,serif" font-size="11" x="246.59712" y="349.625">59</text>
<text font-family="Times,serif" font-size="11" x="286.59711" y="349.625">60</text>
<text font-family="Times,serif" font-size="11" x="326.59711" y="349.625">61</text>
<text font-family="Times,serif" font-size="11" x="366.59711" y="349.625">62</text>
<text font-family="Times,serif" font-size="11" x="406.59711" y="349.625">63</text>
<text font-family="Times,serif" font-size="11" x="446.59711" y="349.625">64</text>
<text font-family="Times,serif" font-size="11" x="486.59711" y="349.625">65</text>
<text font-family="Times,serif" font-size="11" x="526.59711" y="349.625">66</text>
<text font-family="Times,serif" font-size="11" x="566.59711" y="349.625">67</text>
<text font-family="Times,serif" font-size="11" x="606.59711" y="349.625">68</text>
<text font-family="Times,serif" font-size="11" x="646.59711" y="349.625">69</text>
<text font-family="Times,serif" font-size="11" x="686.59711" y="349.625">70</text>
<text font-family="Times,serif" font-size="11" x="726.59711" y="349.625">71</text>
<text font-family="Times,serif" font-size="11" x="166.59712" y="389.625">89</text>
<text font-family="Times,serif" font-size="11" x="206.59712" y="389.625">90</text>
<text font-family="Times,serif" font-size="11" x="246.59712" y="389.625">91</text>
<text font-family="Times,serif" font-size="11" x="286.59711" y="389.625">92</text>
<text font-family="Times,serif" font-size="11" x="326.59711" y="389.625">93</text>
<text font-family="Times,serif" font-size="11" x="366.59711" y="389.625">94</text>
<text font-family="Times,serif" font-size="11" x="406.59711" y="389.625">95</text>
<text font-family="Times,serif" font-size="11" x="446.59711" y="389.625">96</text>
<text font-family="Times,serif" font-size="11" x="486.59711" y="389.625">97</text>
<text font-family="Times,serif" font-size="11" x="526.59711" y="389.625">98</text>
<text font-family="Times,serif" font-size="11" x="566.59711" y="389.625">99</text>
<text font-family="Times,serif" font-size="11" x="604.59711" y="389.625">100</text>
<text font-family="Times,serif" font-size="11" x="644.59711" y="389.625">101</text>
<text font-family="Times,serif" font-size="11" x="684.59711" y="389.625">102</text>
<text font-family="Times,serif" font-size="11" x="724.59711" y="389.625">103</text>
<text font-family="Times,serif" font-size="11" text-anchor="end" x="555.59711" y="349.625">Dy</text>
<text font-family="Times,serif" font-size="11" text-anchor="end" x="195.59712" y="349.625">La</text>
<text font-family="Times,serif" font-size="11" text-anchor="end" x="235.59712" y="349.625">Ce</text>
<text font-family="Times,serif" font-size="11" text-anchor="end" x="275.59711" y="349.625">Pr</text>
<text font-family="Times,serif" font-size="11" text-anchor="end" x="315.59711" y="349.625">Nd</text>
<text font-family="Times,serif" font-size="11" text-anchor="end" x="355.59711" y="349.625">Pm</text>
<text font-family="Times,serif" font-size="11" text-anchor="end" x="395.59711" y="349.625">Sm</text>
<text font-family="Times,serif" font-size="11" text-anchor="end" x="435.59711" y="349.625">Eu</text>
<text font-family="Times,serif" font-size="11" text-anchor="end" x="475.59711" y="349.625">Gd</text>
<text font-family="Times,serif" font-size="11" text-anchor="end" x="515.59711" y="349.625">Tb</text>
<text font-family="Times,serif" font-size="11" text-anchor="end" x="595.59711" y="349.625">Ho</text>
<text font-family="Times,serif" font-size="11" text-anchor="end" x="635.59711" y="349.625">Er</text>
<text font-family="Times,serif" font-size="11" text-anchor="end" x="675.59711" y="349.625">Tm</text>
<text font-family="Times,serif" font-size="11" text-anchor="end" x="715.59711" y="349.625">Yb</text>
<text font-family="Times,serif" font-size="11" text-anchor="end" x="755.59711" y="349.625">Lu</text>
<text font-family="Times,serif" font-size="11" text-anchor="end" x="195.59712" y="389.625">Ac</text>
<text font-family="Times,serif" font-size="11" text-anchor="end" x="235.59712" y="389.625">Th</text>
<text font-family="Times,serif" font-size="11" text-anchor="end" x="275.59711" y="389.625">Pa</text>
<text font-family="Times,serif" font-size="11" text-anchor="end" x="315.59711" y="389.625">U</text>
<text font-family="Times,serif" font-size="11" text-anchor="end" x="355.59711" y="389.625">Np</text>
<text font-family="Times,serif" font-size="11" text-anchor="end" x="395.59711" y="389.625">Pu</text>
<text font-family="Times,serif" font-size="11" text-anchor="end" x="435.59711" y="389.625">Am</text>
<text font-family="Times,serif" font-size="11" text-anchor="end" x="475.59711" y="389.625">Cm</text>
<text font-family="Times,serif" font-size="11" text-anchor="end" x="515.59711" y="389.625">Bk</text>
<text font-family="Times,serif" font-size="11" text-anchor="end" x="555.59711" y="389.625">Cf</text>
<text font-family="Times,serif" font-size="11" text-anchor="end" x="595.59711" y="389.625">Es</text>
<text font-family="Times,serif" font-size="11" text-anchor="end" x="637.59711" y="389.625">Fm</text>
<text font-family="Times,serif" font-size="11" text-anchor="end" x="677.59711" y="389.625">Md</text>
<text font-family="Times,serif" font-size="11" text-anchor="end" x="717.59711" y="389.625">No</text>
<text font-family="Times,serif" font-size="11" text-anchor="end" x="757.59711" y="389.625">Lr</text>
<text font-family="sans-serif" font-size="14" text-anchor="middle" x="182.59712" y="364.125">&#x9567;</text>
<text font-family="sans-serif" font-size="14" text-anchor="middle" x="222.59712" y="364.125">&#x94C8;</text>
<text font-family="sans-serif" font-size="14" text-anchor="middle" x="262.59711" y="364.125">&#x9568;</text>
<text font-family="sans-serif" font-size="14" text-anchor="middle" x="302.59711" y="364.125">&#x9495;</text>
<text font-family="sans-serif" font-size="14" text-anchor="middle" x="342.59711" y="364.125">&#x94B7;</text>
<text font-family="sans-serif" font-size="14" text-anchor="middle" x="382.59711" y="364.125">&#x9490;</text>
<text font-family="sans-serif" font-size="14" text-anchor="middle" x="422.59711" y="364.125">&#x94D5;</text>
<text font-family="sans-serif" font-size="14" text-anchor="middle" x="462.59711" y="364.125">&#x9486;</text>
<text font-family="sans-serif" font-size="14" text-anchor="middle" x="502.59711" y="364.125">&#x94FD;</text>
<text font-family="sans-serif" font-size="14" text-anchor="middle" x="542.59711" y="364.125">&#x955D;</text>
<text font-family="sans-serif" font-size="14" text-anchor="middle" x="582.59711" y="364.125">&#x94AC;</text>
<text font-family="sans-serif" font-size="14" text-anchor="middle" x="622.59711" y="364.125">&#x94D2;</text>
<text font-family="sans-serif" font-size="14" text-anchor="middle" x="662.59711" y="364.125">&#x94E5;</text>
<text font-family="sans-serif" font-size="14" text-anchor="middle" x="702.59711" y="364.125">&#x9571;</text>
<text font-family="sans-serif" font-size="14" text-anchor="middle" x="742.59711" y="364.125">&#x9565;</text>
<text font-family="sans-serif" font-size="14" text-anchor="middle" x="182.59712" y="404.125">&#x9515;</text>
<text font-family="sans-serif" font-size="14" text-anchor="middle" x="222.59712" y="404.125">&#x948D;</text>
<text font-family="sans-serif" font-size="14" text-anchor="middle" x="262.59711" y="404.125">&#x9564;</text>
<text font-family="sans-serif" font-size="14" text-anchor="middle" x="302.59711" y="404.125">&#x94C0;</text>
<text font-family="sans-serif" font-size="14" text-anchor="middle" x="342.59711" y="404.125">&#x954E;</text>
<text font-family="sans-serif" font-size="14" text-anchor="middle" x="382.59711" y="404.125">&#x949A;</text>
<text font-family="sans-serif" font-size="14" text-anchor="middle" x="422.59711" y="404.125">&#x9545;</text>
<text font-family="sans-serif" font-size="14" text-anchor="middle" x="462.59711" y="404.125">&#x9514;</text>
<text font-family="sans-serif" font-size="14" text-anchor="middle" x="502.59711" y="404.125">&#x952B;</text>
<text font-family="sans-serif" font-size="14" text-anchor="middle" x="542.59711" y="404.125">&#x950E;</text>
<text font-family="sans-serif" font-size="14" text-anchor="middle" x="582.59711" y="404.125">&#x953F;</text>
<text font-family="sans-serif" font-size="14" text-anchor="middle" x="622.59711" y="404.125">&#x9544;</text>
<text font-family="sans-serif" font-size="14" text-anchor="middle" x="662.59711" y="404.125">&#x9494;</text>
<text font-family="sans-serif" font-size="14" text-anchor="middle" x="702.59711" y="404.125">&#x9518;</text>
<text font-family="sans-serif" font-size="14" text-anchor="middle" x="742.59711" y="404.125">&#x94F9;</text>
<g font-family="sans-serif" font-size="14" text-anchor="end" transform="translate(-19.902882 -75.375001)">
<text x="169" y="434">&#x9567;&#x7CFB;&#x5143;&#x7D20;</text>
<text x="169" y="472">&#x9515;&#x7CFB;&#x5143;&#x7D20;</text>
</g>
<path d="m11 21.611929h1v10h-2l2.5 4 2.5-4h-2v-10"/>
<path d="m32.097118 13.124999v1h10v-2l4 2.5-4 2.5v-2h-10"/>
<path d="m124.09712 315.625v-36h36v36z" fill="#f9c"/>
<path d="m124.09712 275.625v-36h36v36z" fill="#ffbfff"/>
<path d="m84.097118 315.625v-36h36.000002v36z" fill="#ffdead" stroke="#000"/>
<path d="m164.09712 315.625v-36h36v36z" fill="#ffc0c0" stroke="#000"/>
<path d="m204.09712 315.625v-36h36v36z" fill="#ffc0c0" stroke="#000"/>
<path d="m244.09712 315.625v-36h36v36z" fill="#ffc0c0" stroke="#000"/>
<path d="m284.09712 315.625v-36h36v36z" fill="#ffc0c0" stroke="#000"/>
<path d="m324.09712 315.625v-36h36v36z" fill="#ffc0c0" stroke="#000"/>
<path d="m364.09712 315.625v-36h36v36z" fill="#e8e8e8" stroke="#000"/>
<path d="m404.09712 315.625v-36h36v36z" fill="#e8e8e8" stroke="#000"/>
<path d="m444.09712 315.625v-36h36v36z" fill="#e8e8e8" stroke="#000"/>
<path d="m484.09712 315.625v-36h36v36z" fill="#ffc0c0" stroke="#000"/>
<path d="m524.09712 315.625v-36h36v36z" fill="#e8e8e8" stroke="#000"/>
<path d="m564.09712 315.625v-36h36v36z" fill="#ccc" stroke="#000"/>
<path d="m604.09712 315.625v-36h36v36z" fill="#e8e8e8" stroke="#000"/>
<path d="m644.09712 315.625v-36h36v36z" fill="#e8e8e8" stroke="#000"/>
<path d="m684.09712 315.625v-36h36v36z" fill="#e8e8e8" stroke="#000"/>
<path d="m724.09712 315.625v-36h36v36z" fill="#e8e8e8" stroke="#000"/>
<path d="m44.097118 315.625v-36h36v36z" fill="#f66" stroke="#000"/>
<path d="m84.097118 275.625v-36h36.000002v36z" fill="#ffdead" stroke="#000"/>
<path d="m164.09712 275.625v-36h36v36z" fill="#ffc0c0" stroke="#000"/>
<path d="m204.09712 275.625v-36h36v36z" fill="#ffc0c0" stroke="#000"/>
<path d="m244.09712 275.625v-36h36v36z" fill="#ffc0c0" stroke="#000"/>
<path d="m284.09712 275.625v-36h36v36z" fill="#ffc0c0" stroke="#000"/>
<path d="m324.09712 275.625v-36h36v36z" fill="#ffc0c0" stroke="#000"/>
<path d="m364.09712 275.625v-36h36v36z" fill="#ffc0c0" stroke="#000"/>
<path d="m404.09712 275.625v-36h36v36z" fill="#ffc0c0" stroke="#000"/>
<path d="m444.09712 275.625v-36h36v36z" fill="#ffc0c0" stroke="#000"/>
<path d="m484.09712 275.625v-36h36v36z" fill="#ffc0c0" stroke="#000"/>
<path d="m524.09712 275.625v-36h36v36z" fill="#ccc" stroke="#000"/>
<path d="m564.09712 275.625v-36h36v36z" fill="#ccc" stroke="#000"/>
<path d="m604.09712 275.625v-36h36v36z" fill="#ccc" stroke="#000"/>
<path d="m644.09712 275.625v-36h36v36z" fill="#ccc" stroke="#000"/>
<path d="m684.09712 275.625v-36h36v36z" fill="#cc9" stroke="#000"/>
<path d="m724.09712 275.625v-36h36v36z" fill="#c0ffff" stroke="#000"/>
<path d="m44.097118 275.625v-36h36v36z" fill="#f66" stroke="#000"/>
<path d="m84.097118 235.625v-36h36.000002v36z" fill="#ffdead" stroke="#000"/>
<path d="m124.09712 235.625v-36h36v36z" fill="#ffc0c0" stroke="#000"/>
<path d="m164.09712 235.625v-36h36v36z" fill="#ffc0c0" stroke="#000"/>
<path d="m204.09712 235.625v-36h36v36z" fill="#ffc0c0" stroke="#000"/>
<path d="m244.09712 235.625v-36h36v36z" fill="#ffc0c0" stroke="#000"/>
<path d="m284.09712 235.625v-36h36v36z" fill="#ffc0c0" stroke="#000"/>
<path d="m324.09712 235.625v-36h36v36z" fill="#ffc0c0" stroke="#000"/>
<path d="m364.09712 235.625v-36h36v36z" fill="#ffc0c0" stroke="#000"/>
<path d="m404.09712 235.625v-36h36v36z" fill="#ffc0c0" stroke="#000"/>
<path d="m444.09712 235.625v-36h36v36z" fill="#ffc0c0" stroke="#000"/>
<path d="m484.09712 235.625v-36h36v36z" fill="#ffc0c0" stroke="#000"/>
<path d="m524.09712 235.625v-36h36v36z" fill="#ccc" stroke="#000"/>
<path d="m564.09712 235.625v-36h36v36z" fill="#ccc" stroke="#000"/>
<path d="m604.09712 235.625v-36h36v36z" fill="#cc9" stroke="#000"/>
<path d="m644.09712 235.625v-36h36v36z" fill="#cc9" stroke="#000"/>
<path d="m684.09712 235.625v-36h36v36z" fill="#e7ff8f" stroke="#000"/>
<path d="m724.09712 235.625v-36h36v36z" fill="#c0ffff" stroke="#000"/>
<path d="m44.097118 235.625v-36h36v36z" fill="#f66" stroke="#000"/>
<path d="m84.097118 195.625v-36h36.000002v36z" fill="#ffdead" stroke="#000"/>
<path d="m124.09712 195.625v-36h36v36z" fill="#ffc0c0" stroke="#000"/>
<path d="m164.09712 195.625v-36h36v36z" fill="#ffc0c0" stroke="#000"/>
<path d="m204.09712 195.625v-36h36v36z" fill="#ffc0c0" stroke="#000"/>
<path d="m244.09712 195.625v-36h36v36z" fill="#ffc0c0" stroke="#000"/>
<path d="m284.09712 195.625v-36h36v36z" fill="#ffc0c0" stroke="#000"/>
<path d="m324.09712 195.625v-36h36v36z" fill="#ffc0c0" stroke="#000"/>
<path d="m364.09712 195.625v-36h36v36z" fill="#ffc0c0" stroke="#000"/>
<path d="m404.09712 195.625v-36h36v36z" fill="#ffc0c0" stroke="#000"/>
<path d="m444.09712 195.625v-36h36v36z" fill="#ffc0c0" stroke="#000"/>
<path d="m484.09712 195.625v-36h36v36z" fill="#ffc0c0" stroke="#000"/>
<path d="m524.09712 195.625v-36h36v36z" fill="#ccc" stroke="#000"/>
<path d="m564.09712 195.625v-36h36v36z" fill="#cc9" stroke="#000"/>
<path d="m604.09712 195.625v-36h36v36z" fill="#cc9" stroke="#000"/>
<path d="m644.09712 195.625v-36h36v36z" fill="#a1ffc3" stroke="#000"/>
<path d="m684.09712 195.625v-36h36v36z" fill="#e7ff8f" stroke="#000"/>
<path d="m724.09712 195.625v-36h36v36z" fill="#c0ffff" stroke="#000"/>
<path d="m44.097118 195.625v-36h36v36z" fill="#f66" stroke="#000"/>
<path d="m84.097118 155.625v-36h36.000002v36z" fill="#ffdead" stroke="#000"/>
<path d="m44.097118 155.625v-36h36v36z" fill="#f66" stroke="#000"/>
<path d="m84.097118 115.625v-36.000001h36.000002v36.000001z" fill="#ffdead" stroke="#000"/>
<path d="m44.097118 115.625v-36.000001h36v36.000001z" fill="#f66" stroke="#000"/>
<path d="m44.097118 75.624999v-36h36v36z" fill="#a1ffc3" stroke="#000"/>
<path d="m524.09712 155.625v-36h36v36z" fill="#ccc" stroke="#000"/>
<path d="m564.09712 155.625v-36h36v36z" fill="#cc9" stroke="#000"/>
<path d="m604.09712 155.625v-36h36v36z" fill="#a1ffc3" stroke="#000"/>
<path d="m644.09712 155.625v-36h36v36z" fill="#a1ffc3" stroke="#000"/>
<path d="m684.09712 155.625v-36h36v36z" fill="#e7ff8f" stroke="#000"/>
<path d="m724.09712 155.625v-36h36v36z" fill="#c0ffff" stroke="#000"/>
<path d="m524.09712 115.625v-36.000001h36v36.000001z" fill="#cc9" stroke="#000"/>
<path d="m564.09712 115.625v-36.000001h36v36.000001z" fill="#a1ffc3" stroke="#000"/>
<path d="m604.09712 115.625v-36.000001h36v36.000001z" fill="#a1ffc3" stroke="#000"/>
<path d="m644.09712 115.625v-36.000001h36v36.000001z" fill="#a1ffc3" stroke="#000"/>
<path d="m684.09712 115.625v-36.000001h36v36.000001z" fill="#e7ff8f" stroke="#000"/>
<path d="m724.09712 115.625v-36.000001h36v36.000001z" fill="#c0ffff" stroke="#000"/>
<path d="m724.09712 75.624999v-36h36v36z" fill="#c0ffff" stroke="#000"/>
<g font-family="Times,serif">
<text font-size="11" x="46.597118" y="53.625">1</text>
<text font-size="11" x="726.59711" y="53.625">2</text>
<text font-size="11" x="46.597118" y="93.625">3</text>
<text font-size="11" x="86.597115" y="93.625">4</text>
<text font-size="11" x="526.59711" y="93.625">5</text>
<text font-size="11" x="566.59711" y="93.625">6</text>
<text font-size="11" x="606.59711" y="93.625">7</text>
<text font-size="11" x="646.59711" y="93.625">8</text>
<text font-size="11" x="686.59711" y="93.625">9</text>
<text font-size="11" x="726.59711" y="93.625">10</text>
<text font-size="11" x="46.597118" y="133.625">11</text>
<text font-size="11" x="86.597115" y="133.625">12</text>
<text font-size="11" x="526.59711" y="133.625">13</text>
<text font-size="11" x="566.59711" y="133.625">14</text>
<text font-size="11" x="606.59711" y="133.625">15</text>
<text font-size="11" x="646.59711" y="133.625">16</text>
<text font-size="11" x="686.59711" y="133.625">17</text>
<text font-size="11" x="726.59711" y="133.625">18</text>
<text font-size="11" x="46.597118" y="173.625">19</text>
<text font-size="11" x="86.597115" y="173.625">20</text>
<text font-size="11" x="126.59711" y="173.625">21</text>
<text font-size="11" x="166.59712" y="173.625">22</text>
<text font-size="11" x="206.59712" y="173.625">23</text>
<text font-size="11" x="246.59712" y="173.625">24</text>
<text font-size="11" x="286.59711" y="173.625">25</text>
<text font-size="11" x="326.59711" y="173.625">26</text>
<text font-size="11" x="366.59711" y="173.625">27</text>
<text font-size="11" x="406.59711" y="173.625">28</text>
<text font-size="11" x="446.59711" y="173.625">29</text>
<text font-size="11" x="486.59711" y="173.625">30</text>
<text font-size="11" x="526.59711" y="173.625">31</text>
<text font-size="11" x="566.59711" y="173.625">32</text>
<text font-size="11" x="606.59711" y="173.625">33</text>
<text font-size="11" x="646.59711" y="173.625">34</text>
<text font-size="11" x="686.59711" y="173.625">35</text>
<text font-size="11" x="726.59711" y="173.625">36</text>
<text font-size="11" x="46.597118" y="213.625">37</text>
<text font-size="11" x="86.597115" y="213.625">38</text>
<text font-size="11" x="126.59711" y="213.625">39</text>
<text font-size="11" x="166.59712" y="213.625">40</text>
<text font-size="11" x="206.59712" y="213.625">41</text>
<text font-size="11" x="246.59712" y="213.625">42</text>
<text font-size="11" x="286.59711" y="213.625">43</text>
<text font-size="11" x="326.59711" y="213.625">44</text>
<text font-size="11" x="366.59711" y="213.625">45</text>
<text font-size="11" x="406.59711" y="213.625">46</text>
<text font-size="11" x="446.59711" y="213.625">47</text>
<text font-size="11" x="486.59711" y="213.625">48</text>
<text font-size="11" x="526.59711" y="213.625">49</text>
<text font-size="11" x="566.59711" y="213.625">50</text>
<text font-size="11" x="606.59711" y="213.625">51</text>
<text font-size="11" x="646.59711" y="213.625">52</text>
<text font-size="11" x="686.59711" y="213.625">53</text>
<text font-size="11" x="726.59711" y="213.625">54</text>
<text font-size="11" x="46.597118" y="253.625">55</text>
<text font-size="11" x="86.597115" y="253.625">56</text>
<text font-size="11" x="166.59712" y="253.625">72</text>
<text font-size="11" x="206.59712" y="253.625">73</text>
<text font-size="11" x="246.59712" y="253.625">74</text>
<text font-size="11" x="286.59711" y="253.625">75</text>
<text font-size="11" x="326.59711" y="253.625">76</text>
<text font-size="11" x="366.59711" y="253.625">77</text>
<text font-size="11" x="406.59711" y="253.625">78</text>
<text font-size="11" x="446.59711" y="253.625">79</text>
<text font-size="11" x="486.59711" y="253.625">80</text>
<text font-size="11" x="526.59711" y="253.625">81</text>
<text font-size="11" x="566.59711" y="253.625">82</text>
<text font-size="11" x="606.59711" y="253.625">83</text>
<text font-size="11" x="646.59711" y="253.625">84</text>
<text font-size="11" x="686.59711" y="253.625">85</text>
<text font-size="11" x="726.59711" y="253.625">86</text>
<text font-size="11" x="46.597118" y="293.625">87</text>
<text font-size="11" x="86.597115" y="293.625">88</text>
<text font-size="11" x="164.59712" y="293.625">104</text>
<text font-size="11" x="204.59712" y="293.625">105</text>
<text font-size="11" x="244.59712" y="293.625">106</text>
<text font-size="11" x="284.59711" y="293.625">107</text>
<text font-size="11" x="324.59711" y="293.625">108</text>
<text font-size="11" x="364.59711" y="293.625">109</text>
<text font-size="11" x="404.59711" y="293.625">110</text>
<text font-size="11" x="444.59711" y="293.625">111</text>
<text font-size="11" x="484.59711" y="293.625">112</text>
<text font-size="11" x="525.16431" y="293.625">113</text>
<text font-size="11" x="566.59711" y="293.625">114</text>
<text font-size="10.8643" transform="scale(.98766007 1.0124941)" x="612.12909" y="289.90518">115</text>
<text font-size="11" x="646.59711" y="293.625">116</text>
<text font-size="11" x="685.4248" y="293.625">117</text>
<text font-size="10.8402" transform="scale(.98546983 1.0147444)" x="735.95819" y="289.26227">118</text>
<text font-size="11" text-anchor="end" x="75.597115" y="53.625">H</text>
<text font-size="11" text-anchor="end" x="755.59711" y="53.625">He</text>
<text font-size="11" text-anchor="end" x="75.597115" y="93.625">Li</text>
<text font-size="11" text-anchor="end" x="115.59711" y="93.625">Be</text>
<text font-size="11" text-anchor="end" x="555.59711" y="93.625">B</text>
<text font-size="11" text-anchor="end" x="595.59711" y="93.625">C</text>
<text font-size="11" text-anchor="end" x="635.59711" y="93.625">N</text>
<text font-size="11" text-anchor="end" x="675.59711" y="93.625">O</text>
<text font-size="11" text-anchor="end" x="715.59711" y="93.625">F</text>
<text font-size="11" text-anchor="end" x="755.59711" y="93.625">Ne</text>
<text font-size="11" text-anchor="end" x="75.597115" y="133.625">Na</text>
<text font-size="11" text-anchor="end" x="115.59711" y="133.625">Mg</text>
<text font-size="11" text-anchor="end" x="555.59711" y="133.625">Al</text>
<text font-size="11" text-anchor="end" x="595.59711" y="133.625">Si</text>
<text font-size="11" text-anchor="end" x="635.59711" y="133.625">P</text>
<text font-size="11" text-anchor="end" x="675.59711" y="133.625">S</text>
<text font-size="11" text-anchor="end" x="715.59711" y="133.625">Cl</text>
<text font-size="11" text-anchor="end" x="755.59711" y="133.625">Ar</text>
<text font-size="11" text-anchor="end" x="115.59711" y="173.625">Ca</text>
<text font-size="11" text-anchor="end" x="155.59712" y="173.625">Sc</text>
<text font-size="11" text-anchor="end" x="195.59712" y="173.625">Ti</text>
<text font-size="11" text-anchor="end" x="235.59712" y="173.625">V</text>
<text font-size="11" text-anchor="end" x="275.59711" y="173.625">Cr</text>
<text font-size="11" text-anchor="end" x="315.59711" y="173.625">Mn</text>
<text font-size="11" text-anchor="end" x="355.59711" y="173.625">Fe</text>
<text font-size="11" text-anchor="end" x="395.59711" y="173.625">Co</text>
<text font-size="11" text-anchor="end" x="435.59711" y="173.625">Ni</text>
<text font-size="11" text-anchor="end" x="475.59711" y="173.625">Cu</text>
<text font-size="11" text-anchor="end" x="515.59711" y="173.625">Zn</text>
<text font-size="11" text-anchor="end" x="75.597115" y="173.625">K</text>
<text font-size="11" text-anchor="end" x="555.59711" y="173.625">Ga</text>
<text font-size="11" text-anchor="end" x="595.59711" y="173.625">Ge</text>
<text font-size="11" text-anchor="end" x="635.59711" y="173.625">As</text>
<text font-size="11" text-anchor="end" x="675.59711" y="173.625">Se</text>
<text font-size="11" text-anchor="end" x="715.59711" y="173.625">Br</text>
<text font-size="11" text-anchor="end" x="755.59711" y="173.625">Kr</text>
<text font-size="11" text-anchor="end" x="75.597115" y="213.625">Rb</text>
<text font-size="11" text-anchor="end" x="115.59711" y="213.625">Sr</text>
<text font-size="11" text-anchor="end" x="155.59712" y="213.625">Y</text>
<text font-size="11" text-anchor="end" x="195.59712" y="213.625">Zr</text>
<text font-size="11" text-anchor="end" x="235.59712" y="213.625">Nb</text>
<text font-size="11" text-anchor="end" x="275.59711" y="213.625">Mo</text>
<text font-size="11" text-anchor="end" x="315.59711" y="213.625">Tc</text>
<text font-size="11" text-anchor="end" x="355.59711" y="213.625">Ru</text>
<text font-size="11" text-anchor="end" x="395.59711" y="213.625">Rh</text>
<text font-size="11" text-anchor="end" x="435.59711" y="213.625">Pd</text>
<text font-size="11" text-anchor="end" x="475.59711" y="213.625">Ag</text>
<text font-size="11" text-anchor="end" x="515.59711" y="213.625">Cd</text>
<text font-size="11" text-anchor="end" x="555.59711" y="213.625">In</text>
<text font-size="11" text-anchor="end" x="595.59711" y="213.625">Sn</text>
<text font-size="11" text-anchor="end" x="635.59711" y="213.625">Sb</text>
<text font-size="11" text-anchor="end" x="675.59711" y="213.625">Te</text>
<text font-size="11" text-anchor="end" x="715.59711" y="213.625">I</text>
<text font-size="11" text-anchor="end" x="755.59711" y="213.625">Xe</text>
<text font-size="11" text-anchor="end" x="115.59711" y="253.625">Ba</text>
<text font-size="11" text-anchor="end" x="195.59712" y="253.625">Hf</text>
<text font-size="11" text-anchor="end" x="235.59712" y="253.625">Ta</text>
<text font-size="11" text-anchor="end" x="275.59711" y="253.625">W</text>
<text font-size="11" text-anchor="end" x="315.59711" y="253.625">Re</text>
<text font-size="11" text-anchor="end" x="355.59711" y="253.625">Os</text>
<text font-size="11" text-anchor="end" x="395.59711" y="253.625">Ir</text>
<text font-size="11" text-anchor="end" x="435.59711" y="253.625">Pt</text>
<text font-size="11" text-anchor="end" x="475.59711" y="253.625">Au</text>
<text font-size="11" text-anchor="end" x="515.59711" y="253.625">Hg</text>
<text font-size="11" text-anchor="end" x="555.59711" y="253.625">Tl</text>
<text font-size="11" text-anchor="end" x="595.59711" y="253.625">Pb</text>
<text font-size="11" text-anchor="end" x="635.59711" y="253.625">Bi</text>
<text font-size="11" text-anchor="end" x="675.59711" y="253.625">Po</text>
<text font-size="11" text-anchor="end" x="715.59711" y="253.625">At</text>
<text font-size="11" text-anchor="end" x="755.59711" y="253.625">Rn</text>
<text font-size="11" text-anchor="end" x="75.597115" y="253.625">Cs</text>
<text font-size="11" text-anchor="end" x="275.59711" y="293.625">Sg</text>
<text font-size="11" text-anchor="end" x="475.59711" y="293.625">Rg</text>
<text font-size="11" text-anchor="end" x="115.59711" y="293.625">Ra</text>
<text font-size="11" text-anchor="end" x="195.59712" y="293.625">Rf</text>
<text font-size="11" text-anchor="end" x="237.59712" y="293.625">Db</text>
<text font-size="11" text-anchor="end" x="317.59711" y="293.625">Bh</text>
<text font-size="11" text-anchor="end" x="357.59711" y="293.625">Hs</text>
<text font-size="11" text-anchor="end" x="397.59711" y="293.625">Mt</text>
<text font-size="11" text-anchor="end" x="437.59711" y="293.625">Ds</text>
<text font-size="11" text-anchor="end" x="597.59711" y="293.625">Fl</text>
<text font-size="11" text-anchor="end" x="677.85492" y="293.625">Lv</text>
<text font-size="11" text-anchor="end" x="75.597115" y="293.625">Fr</text>
<text font-size="11" text-anchor="end" x="556.9729" y="293.625">Nh</text>
<text font-size="11" text-anchor="end" x="716.22601" y="293.625">Ts</text>
<text font-size="11" text-anchor="end" x="637.0307" y="293.625">Mc</text>
<text font-size="11" text-anchor="end" x="756.92474" y="293.625">Og</text>
<text font-size="11" text-anchor="end" x="515.34717" y="293.625">Cn</text>
</g>
<text font-family="sans-serif" font-size="14" text-anchor="middle" x="62.597118" y="68.125">&#x6C22;</text>
<text font-family="sans-serif" font-size="14" text-anchor="middle" x="742.59711" y="68.125">&#x6C26;</text>
<text font-family="sans-serif" font-size="14" text-anchor="middle" x="62.597118" y="108.125">&#x9502;</text>
<text font-family="sans-serif" font-size="14" text-anchor="middle" x="102.59711" y="108.125">&#x94CD;</text>
<text font-family="sans-serif" font-size="14" text-anchor="middle" x="542.59711" y="108.125">&#x787C;</text>
<text font-family="sans-serif" font-size="14" text-anchor="middle" x="582.59711" y="108.125">&#x78B3;</text>
<text font-family="sans-serif" font-size="14" text-anchor="middle" x="622.59711" y="108.125">&#x6C2E;</text>
<text font-family="sans-serif" font-size="14" text-anchor="middle" x="662.59711" y="108.125">&#x6C27;</text>
<text font-family="sans-serif" font-size="14" text-anchor="middle" x="702.59711" y="108.125">&#x6C1F;</text>
<text font-family="sans-serif" font-size="14" text-anchor="middle" x="742.59711" y="108.125">&#x6C16;</text>
<text font-family="sans-serif" font-size="14" text-anchor="middle" x="62.597118" y="148.125">&#x94A0;</text>
<text font-family="sans-serif" font-size="14" text-anchor="middle" x="102.59711" y="148.125">&#x9541;</text>
<text font-family="sans-serif" font-size="14" text-anchor="middle" x="542.59711" y="148.125">&#x94DD;</text>
<text font-family="sans-serif" font-size="14" text-anchor="middle" x="582.59711" y="148.125">&#x7845;</text>
<text font-family="sans-serif" font-size="14" text-anchor="middle" x="622.59711" y="148.125">&#x78F7;</text>
<text font-family="sans-serif" font-size="14" text-anchor="middle" x="662.59711" y="148.125">&#x786B;</text>
<text font-family="sans-serif" font-size="14" text-anchor="middle" x="702.59711" y="148.125">&#x6C2F;</text>
<text font-family="sans-serif" font-size="14" text-anchor="middle" x="742.59711" y="148.125">&#x6C29;</text>
<text font-family="sans-serif" font-size="14" text-anchor="middle" x="62.597118" y="188.125">&#x94BE;</text>
<text font-family="sans-serif" font-size="14" text-anchor="middle" x="102.59711" y="188.125">&#x9499;</text>
<text font-family="sans-serif" font-size="14" text-anchor="middle" x="142.59712" y="188.125">&#x94AA;</text>
<text font-family="sans-serif" font-size="14" text-anchor="middle" x="182.59712" y="188.125">&#x949B;</text>
<text font-family="sans-serif" font-size="14" text-anchor="middle" x="222.59712" y="188.125">&#x9492;</text>
<text font-family="sans-serif" font-size="14" text-anchor="middle" x="262.59711" y="188.125">&#x94EC;</text>
<text font-family="sans-serif" font-size="14" text-anchor="middle" x="302.59711" y="188.125">&#x9530;</text>
<text font-family="sans-serif" font-size="14" text-anchor="middle" x="342.59711" y="188.125">&#x94C1;</text>
<text font-family="sans-serif" font-size="14" text-anchor="middle" x="382.59711" y="188.125">&#x94B4;</text>
<text font-family="sans-serif" font-size="14" text-anchor="middle" x="422.59711" y="188.125">&#x954D;</text>
<text font-family="sans-serif" font-size="14" text-anchor="middle" x="462.59711" y="188.125">&#x94DC;</text>
<text font-family="sans-serif" font-size="14" text-anchor="middle" x="502.59711" y="188.125">&#x950C;</text>
<text font-family="sans-serif" font-size="14" text-anchor="middle" x="542.59711" y="188.125">&#x9553;</text>
<text font-family="sans-serif" font-size="14" text-anchor="middle" x="582.59711" y="188.125">&#x9517;</text>
<text font-family="sans-serif" font-size="14" text-anchor="middle" x="622.59711" y="188.125">&#x7837;</text>
<text font-family="sans-serif" font-size="14" text-anchor="middle" x="662.59711" y="188.125">&#x7852;</text>
<text font-family="sans-serif" font-size="14" text-anchor="middle" x="702.59711" y="188.125">&#x6EB4;</text>
<text font-family="sans-serif" font-size="14" text-anchor="middle" x="742.59711" y="188.125">&#x6C2A;</text>
<text font-family="sans-serif" font-size="14" text-anchor="middle" x="62.597118" y="228.125">&#x94F7;</text>
<text font-family="sans-serif" font-size="14" text-anchor="middle" x="102.59711" y="228.125">&#x9536;</text>
<text font-family="sans-serif" font-size="14" text-anchor="middle" x="142.59712" y="228.125">&#x9487;</text>
<text font-family="sans-serif" font-size="14" text-anchor="middle" x="182.59712" y="228.125">&#x9506;</text>
<text font-family="sans-serif" font-size="14" text-anchor="middle" x="222.59712" y="228.125">&#x94CC;</text>
<text font-family="sans-serif" font-size="14" text-anchor="middle" x="262.59711" y="228.125">&#x94BC;</text>
<text font-family="sans-serif" font-size="14" text-anchor="middle" x="302.59711" y="228.125">&#x951D;</text>
<text font-family="sans-serif" font-size="14" text-anchor="middle" x="342.59711" y="228.125">&#x948C;</text>
<text font-family="sans-serif" font-size="14" text-anchor="middle" x="382.59711" y="228.125">&#x94D1;</text>
<text font-family="sans-serif" font-size="14" text-anchor="middle" x="422.59711" y="228.125">&#x94AF;</text>
<text font-family="sans-serif" font-size="14" text-anchor="middle" x="462.59711" y="228.125">&#x94F6;</text>
<text font-family="sans-serif" font-size="14" text-anchor="middle" x="502.59711" y="228.125">&#x9549;</text>
<text font-family="sans-serif" font-size="14" text-anchor="middle" x="542.59711" y="228.125">&#x94DF;</text>
<text font-family="sans-serif" font-size="14" text-anchor="middle" x="582.59711" y="228.125">&#x9521;</text>
<text font-family="sans-serif" font-size="14" text-anchor="middle" x="622.59711" y="228.125">&#x9511;</text>
<text font-family="sans-serif" font-size="14" text-anchor="middle" x="662.59711" y="228.125">&#x78B2;</text>
<text font-family="sans-serif" font-size="14" text-anchor="middle" x="702.59711" y="228.125">&#x7898;</text>
<text font-family="sans-serif" font-size="14" text-anchor="middle" x="742.59711" y="228.125">&#x6C19;</text>
<text font-family="sans-serif" font-size="14" text-anchor="middle" x="62.597118" y="268.125">&#x94EF;</text>
<text font-family="sans-serif" font-size="14" text-anchor="middle" x="102.59711" y="268.125">&#x94A1;</text>
<text font-family="sans-serif" font-size="14" text-anchor="middle" x="142.59712" y="268.125">&#x9567;&#x7CFB;</text>
<text font-family="sans-serif" font-size="14" text-anchor="middle" x="182.59712" y="268.125">&#x94EA;</text>
<text font-family="sans-serif" font-size="14" text-anchor="middle" x="222.59712" y="268.125">&#x94BD;</text>
<text font-family="sans-serif" font-size="14" text-anchor="middle" x="262.59711" y="268.125">&#x94A8;</text>
<text font-family="sans-serif" font-size="14" text-anchor="middle" x="302.59711" y="268.125">&#x94FC;</text>
<text font-family="sans-serif" font-size="14" text-anchor="middle" x="342.59711" y="268.125">&#x9507;</text>
<text font-family="sans-serif" font-size="14" text-anchor="middle" x="382.59711" y="268.125">&#x94F1;</text>
<text font-family="sans-serif" font-size="14" text-anchor="middle" x="422.59711" y="268.125">&#x94C2;</text>
<text font-family="sans-serif" font-size="14" text-anchor="middle" x="462.59711" y="268.125">&#x91D1;</text>
<text font-family="sans-serif" font-size="14" text-anchor="middle" x="502.59711" y="268.125">&#x6C5E;</text>
<text font-family="sans-serif" font-size="14" text-anchor="middle" x="542.59711" y="268.125">&#x94CA;</text>
<text font-family="sans-serif" font-size="14" text-anchor="middle" x="582.59711" y="268.125">&#x94C5;</text>
<text font-family="sans-serif" font-size="14" text-anchor="middle" x="622.59711" y="268.125">&#x94CB;</text>
<text font-family="sans-serif" font-size="14" text-anchor="middle" x="662.59711" y="268.125">&#x948B;</text>
<text font-family="sans-serif" font-size="14" text-anchor="middle" x="702.59711" y="268.125">&#x7839;</text>
<text font-family="sans-serif" font-size="14" text-anchor="middle" x="742.59711" y="268.125">&#x6C21;</text>
<text font-family="sans-serif" font-size="14" text-anchor="middle" x="62.597118" y="308.125">&#x94AB;</text>
<text font-family="sans-serif" font-size="14" text-anchor="middle" x="102.59711" y="308.125">&#x956D;</text>
<text font-family="sans-serif" font-size="14" text-anchor="middle" x="142.59712" y="308.125">&#x9515;&#x7CFB;</text>
<text font-family="sans-serif" font-size="14" text-anchor="middle" x="622.59711" y="308.125">&#x9546;</text>
<path d="m181.08514 298.997v-.994h-2.562c.21-.42.392-.854.546-1.288l-.938-.266c-.42 1.288-1.19 2.548-2.03 3.36.154.238.434.742.518.966.49-.504.952-1.092 1.372-1.778zm-1.764 8.302v-3.038h1.778v-.952h-1.778v-1.89h1.526v-.952h-3.808v.952h1.302v1.89h-1.876v.952h1.876v2.954c0 .56-.364.868-.616.994.168.224.378.644.448.896.196-.196.574-.406 2.856-1.68-.07-.196-.126-.616-.154-.896zm8.008-3.962h-4.41v-.14-2.156h4.41zm1.288-4.76v-.896h-3.178v-1.204h-.994v3.57h-2.52v3.136c0 1.68-.168 3.934-1.568 5.53.252.098.672.364.868.546 1.176-1.344 1.554-3.276 1.666-4.942h4.438v.7h1.008v-4.97h-2.898v-1.47z"/>
<path d="m220.27314 298.969v-.966h-2.086c.182-.434.322-.882.448-1.316l-.882-.238c-.336 1.302-.952 2.59-1.68 3.444.168.21.434.7.518.896.42-.504.826-1.12 1.162-1.82zm-1.414 8.358v-3.052h1.414v-.952h-1.414v-1.904h1.176v-.938h-3.122v.938h1.092v1.904h-1.596v.952h1.596v2.94c0 .63-.434 1.022-.686 1.19.154.154.392.49.476.658.182-.196.518-.434 2.506-1.652-.07-.182-.196-.532-.238-.784zm5.194-4.158c-.21-.392-1.078-1.96-1.442-2.562v-.504h1.372v-.994h-1.372v-2.688h-.868v2.688h-1.47v.994h1.344c-.28 1.862-.91 4.102-1.554 5.25.168.238.392.658.504.938.434-.868.854-2.24 1.176-3.682v6.58h.868v-7.126c.322.658.658 1.414.812 1.834zm2.646 4.424v-5.768h1.876v-1.008h-1.876v-4.326h-.924v4.326h-1.778v1.008h1.778v5.768h-2.352v1.008h5.558v-1.008z"/>
<path d="m264.40312 299.081h-2.814v.784h6.762v-.784h-2.954v-.868h3.43v-.784h-3.43v-1.022h-.994v1.022h-3.29v.784h3.29zm-3.556-.07-.014-.994h-2.618c.182-.42.336-.882.448-1.316l-.924-.252c-.35 1.274-.952 2.534-1.666 3.36.168.238.434.756.532.966.42-.49.812-1.092 1.162-1.764zm-1.778 8.064v-2.814h1.792v-.952h-1.792v-1.89h1.54v-.938h-3.584v.938h1.092v1.89h-1.722v.952h1.722v2.632c0 .658-.518 1.162-.784 1.358.196.168.476.56.588.784.224-.266.616-.532 3.164-2.156-.098-.196-.21-.602-.266-.882zm8.19-.364v1.316h-4.48v-1.316zm-5.39 2.478h.91v-.406h4.48v.364h.938v-3.192h-6.328zm4.438-6.132c-.14.364-.364.896-.56 1.274l.308.084h-2.38l.462-.168c-.098-.322-.364-.812-.602-1.19zm-3.416-1.82h4.144v1.106h-4.144zm3.696 3.178c.21-.336.448-.756.7-1.176l-.742-.182h1.456v-2.534h-6.034v2.534h1.4l-.644.196c.224.35.448.826.56 1.162h-2.338v.798h8.022v-.798z"/>
<path d="m302.79312 298.479c-.322-.476-.994-1.218-1.54-1.736l-.686.448c.56.546 1.204 1.33 1.512 1.82zm-2.478 2.534c.588.518 1.33 1.26 1.694 1.708l.686-.56c-.378-.434-1.134-1.134-1.736-1.624zm.028-2.128v-.896h-2.394c.154-.434.294-.896.406-1.33l-.896-.238c-.294 1.26-.756 2.52-1.386 3.374.168.21.434.7.518.91.378-.504.728-1.134 1.008-1.82zm-1.484 8.162v-2.786h1.456v-.952h-1.456v-1.918h1.12v-.91h-3.15v.91h1.12v1.918h-1.624v.952h1.624v2.842c0 .588-.434.994-.7 1.162.182.196.42.602.504.84.168-.252.504-.532 2.716-2.184-.098-.182-.238-.532-.308-.784zm2.702-2.856c-.434 1.512-1.078 3.262-1.568 4.326l.84.392c.476-1.218 1.064-2.912 1.456-4.298zm5.824-1.54c-.294 1.148-.756 2.184-1.316 3.066-.532-.896-.924-1.946-1.19-3.066zm-3.472-.994v-2.478h1.456v2.604h-1.456zm3.962.084-.168.042h-1.428v-2.604h1.456c-.182.518-.378 1.022-.546 1.4l.7.35c.322-.63.686-1.596.994-2.464l-.616-.238-.154.056h-1.834v-1.834h-.91v1.834h-2.366v3.374c0 2.044-.126 4.956-1.386 7.014.224.084.616.308.798.462 1.106-1.848 1.414-4.424 1.484-6.482h.154c.322 1.456.798 2.758 1.456 3.836-.686.854-1.484 1.526-2.338 1.974.21.154.462.504.588.714.826-.476 1.61-1.106 2.282-1.904.63.798 1.386 1.442 2.31 1.876.126-.252.42-.602.63-.784-.952-.392-1.736-1.022-2.38-1.848.84-1.204 1.484-2.73 1.834-4.564z"/>
<path d="m346.29312 300.845c.252-.532.574-1.372.868-2.072l-.756-.266c-.14.616-.448 1.554-.686 2.128zm-3.5-2.1c.28.658.518 1.512.588 2.072l.644-.21c-.084-.546-.336-1.4-.644-2.044zm-.434-.756h2.114v3.276h-2.114zm5.082 3.276h-2.17v-3.276h2.17zm-3.066 1.792h-2.898v.854h2.898v1.246h-3.43v.882h7.896v-.882h-3.472v-1.246h2.912v-.854h-2.912v-.98h3.024v-4.886h-6.944v4.886h2.926zm-3.612-4.116v-.952h-2.254c.196-.406.364-.854.518-1.274l-.896-.266c-.42 1.302-1.162 2.548-2.002 3.374.182.21.434.7.504.91.49-.504.952-1.106 1.358-1.792zm-1.498 8.274v-2.954h1.68v-.952h-1.68v-1.89h1.274v-.938h-3.36v.938h1.134v1.89h-1.834v.952h1.834v2.786c0 .588-.448.994-.714 1.162.182.224.434.644.518.896.196-.238.546-.476 2.898-1.904-.07-.21-.168-.574-.196-.84zm2.226 2.002c.518-.658.91-1.708 1.19-2.478l-.784-.336c-.252.742-.7 1.75-1.19 2.338zm1.792-2.478c.224.756.406 1.736.42 2.366l.826-.126c-.042-.63-.224-1.61-.462-2.338zm1.722-.028c.378.728.742 1.708.868 2.338l.784-.224c-.14-.63-.504-1.554-.91-2.282zm1.764-.126c.616.798 1.288 1.89 1.568 2.604l.812-.392c-.294-.7-.98-1.764-1.61-2.562z"/>
<path d="m380.98712 299.039v-.952h-2.604c.21-.448.392-.938.532-1.4l-.924-.266c-.406 1.316-1.078 2.618-1.876 3.472.182.224.462.742.532.952.476-.49.896-1.12 1.274-1.806zm-1.68 8.162v-2.94h1.652v-.952h-1.652v-1.876h1.456v-.938h-3.654v.938h1.246v1.876h-1.848v.952h1.848v2.786c0 .546-.406.854-.658.98.168.238.364.7.434.98.21-.21.588-.42 3.052-1.764-.07-.224-.154-.616-.196-.896zm7.672-2.856c-.42.756-1.036 1.414-1.736 1.974-.616-.56-1.12-1.232-1.484-1.974zm.714-.896-.182.056h-3.248c.224-.35.42-.714.588-1.064h4.088v-.896h-3.36v-1.19h2.73v-.84h-2.73v-1.106h3.192v-.882h-3.192v-1.106h-1.008v1.106h-3.08v.882h3.08v1.106h-2.604v.84h2.604v1.19h-3.206v.896h2.338c-.518 1.092-1.47 2.282-2.926 3.122.238.154.588.476.77.7.574-.364 1.078-.784 1.498-1.232.392.7.84 1.316 1.372 1.862-1.078.686-2.338 1.176-3.584 1.456.182.224.434.602.532.854 1.33-.364 2.646-.896 3.794-1.652.91.7 2.002 1.232 3.248 1.554.14-.294.42-.7.658-.924-1.162-.238-2.184-.686-3.052-1.26 1.008-.826 1.834-1.862 2.352-3.122z"/>
<path d="m428.74312 306.375c-.406-1.316-1.442-3.472-2.422-5.18l.042-.378h2.408v-.994h-2.338c.028-.378.028-.742.028-1.092v-2.324h-.98v2.31c0 .35 0 .714-.014 1.106h-2.324v.994h2.254c-.196 1.792-.728 3.878-2.38 5.53.252.14.588.462.756.658 1.26-1.33 1.946-2.884 2.296-4.382.77 1.512 1.498 3.192 1.82 4.284zm-6.23-6.874c-.266-.63-.798-1.638-1.274-2.422l-.812.406c.434.77.98 1.806 1.232 2.478zm-2.338-.574v-.91h-2.128c.168-.434.308-.896.406-1.33l-.896-.238c-.28 1.274-.784 2.534-1.428 3.374.154.21.434.7.518.91.378-.504.742-1.12 1.036-1.806zm-1.344 8.106v-2.814h1.428v-.91h-1.428v-1.932h1.022v-.896h-2.912v.896h.966v1.932h-1.54v.91h1.54v2.786c0 .672-.434 1.12-.672 1.316.168.168.434.504.532.714.196-.28.546-.532 2.758-2.17-.098-.182-.266-.532-.35-.798zm3.64-5.838h-2.296v.966h1.358v4.802c-.504.196-1.078.7-1.624 1.302l.7.966c.49-.728 1.036-1.47 1.414-1.47.294 0 .686.35 1.19.672.756.448 1.624.644 2.772.644.826 0 2.212-.056 2.898-.098.014-.308.154-.812.266-1.092-.91.112-2.296.168-3.136.168-1.078 0-1.932-.14-2.604-.532-.406-.238-.672-.434-.938-.56z"/>
<path d="m461.42112 298.927v-.994h-2.856c.196-.392.364-.798.49-1.204l-.938-.28c-.42 1.302-1.176 2.548-2.002 3.36.168.238.448.756.532.994.504-.532.966-1.162 1.4-1.876zm3.15 8.96c-.658 0-.784-.098-.784-.602v-1.946c1.218-.616 2.8-1.526 3.948-2.324l-.714-.854c-.84.672-2.114 1.498-3.234 2.114v-2.73h-1.022v5.74c0 1.204.35 1.54 1.708 1.54h2.408c1.19 0 1.484-.532 1.61-2.45-.28-.056-.7-.238-.938-.406-.07 1.61-.168 1.918-.742 1.918zm.042-11.494c-.574 1.568-1.708 3.5-3.486 4.928v-.84h-4.004v.938h1.344v1.89h-2.058v.952h2.058v2.814c0 .574-.434.938-.7 1.092.168.21.406.658.49.924.238-.238.644-.462 3.332-1.82-.056-.224-.126-.616-.154-.896l-1.96.924v-3.038h1.988v-.952h-1.988v-1.89h1.54l-.168.126c.238.154.574.504.728.756 1.512-1.232 2.618-2.716 3.402-4.186.924 1.596 2.198 3.178 3.388 4.102.168-.266.49-.616.742-.798-1.302-.91-2.8-2.688-3.612-4.354.07-.168.14-.322.196-.49z"/>
<path d="m501.35112 298.997v-.98h-2.758c.21-.448.378-.938.532-1.4l-.924-.28c-.476 1.54-1.316 3.024-2.254 3.99.154.238.434.756.532.98.588-.63 1.148-1.428 1.638-2.31zm3.85 6.272v1.484h-1.946v-1.484zm.91 2.254v-3.024h-3.78v3.626h.924v-.602zm2.968-4.914h-1.204v-4.592h1.078v-.91h-7.364v.91h5.306v4.592h-5.656v.882h-1.638v-1.974h1.61v-.952h-4.06v.952h1.456v1.974h-2.114v.938h2.114v2.548c0 .686-.49 1.19-.77 1.358.182.182.448.546.56.756v.014c.224-.238.63-.49 3.234-2.016-.084-.21-.21-.602-.252-.882l-1.778.98v-2.758h1.932v-.882h5.516v4.648c0 .168-.056.224-.266.224-.168.028-.812.028-1.526 0 .112.238.252.56.294.812.98 0 1.596 0 1.974-.154.378-.126.49-.35.49-.868v-4.662h1.064zm-3.976-1.568h-1.848v-1.484h1.848zm-2.702-2.198v2.912h3.598v-2.912z"/>
<path d="m541.30912 299.039v-.952h-2.758c.224-.462.434-.938.588-1.414l-.938-.266c-.448 1.358-1.246 2.688-2.128 3.556.182.224.462.756.546.966.504-.518.994-1.162 1.428-1.89zm-1.806 8.106v-2.87h1.792v-.938h-1.792v-1.862h1.498v-.938h-3.836v.938h1.316v1.862h-2.016v.938h2.016v2.702c0 .63-.434 1.036-.686 1.218.182.196.476.602.574.84.196-.224.532-.434 2.702-1.792-.084-.196-.182-.602-.238-.868zm3.192-5.166c-.308 1.582-.826 3.15-1.582 4.172.224.14.644.42.812.574.77-1.12 1.372-2.842 1.736-4.564zm5.054-2.478c-.21.504-.462 1.05-.714 1.512l.91.238c.378-.784.798-1.736 1.12-2.576l-.672-.196-.154.056h-4.62c.196-.602.364-1.232.518-1.876l-1.008-.224c-.406 1.932-1.134 3.864-2.072 5.11.224.154.658.462.826.63.504-.714.994-1.638 1.386-2.674h1.372v8.428c0 .196-.07.252-.266.252-.196.014-.854.014-1.54 0 .154.266.308.7.378.994.91 0 1.526-.028 1.932-.196.378-.168.518-.448.518-1.05v-8.428zm-1.218 2.646c.588 1.456 1.19 3.416 1.386 4.69l.966-.294c-.224-1.288-.826-3.206-1.47-4.676z"/>
<path d="m581.05712 298.941v-.952h-2.52c.196-.406.364-.854.504-1.274l-.91-.266c-.406 1.302-1.134 2.548-1.946 3.374.168.224.42.728.518.938.49-.504.938-1.134 1.33-1.82zm-1.792 8.274v-2.954h1.834v-.952h-1.834v-1.89h1.512v-.938h-3.598v.938h1.134v1.89h-1.834v.952h1.834v2.786c0 .588-.434.994-.7 1.162.182.224.42.644.504.896.21-.238.574-.49 3.024-1.974-.07-.21-.168-.588-.21-.854zm9.534-3.528v-.994h-3.304c.084-.714.112-1.442.112-2.156v-.49h2.632v-.994h-2.632v-2.632h-1.008v2.632h-2.562v.994h2.562v.49c0 .714-.028 1.442-.126 2.156h-2.982v.994h2.8c-.42 1.736-1.386 3.43-3.584 4.732.224.196.56.574.7.812 2.114-1.274 3.164-2.898 3.696-4.592.686 2.002 1.722 3.612 3.234 4.536.168-.294.49-.7.742-.91-1.582-.826-2.66-2.534-3.262-4.578z"/>
<path d="m665.59312 298.507c-.126-.588-.434-1.456-.714-2.142l-.924.252c.252.686.546 1.596.658 2.184zm3.024.434h-6.986v.98h6.986zm-4.172 7.728c-.154-1.4-.616-3.906-1.106-5.852l-.868.224c.448 1.918.868 4.48 1.008 5.922zm-3.094-7.672v-.98h-2.73c.196-.42.364-.854.49-1.288l-.91-.28c-.462 1.442-1.218 2.828-2.1 3.752.154.224.434.728.532.952.546-.574 1.064-1.33 1.526-2.156zm-1.75 8.19v-2.758h1.918v-.938h-1.918v-1.974h1.61v-.952h-4.074v.952h1.47v1.974h-2.184v.938h2.184v2.548c0 .686-.49 1.176-.77 1.358.182.182.448.56.56.756.224-.224.63-.49 3.234-2.002-.084-.21-.21-.602-.252-.882zm6.706.434c.504-1.862 1.078-4.606 1.442-6.748l-1.05-.182c-.266 2.086-.812 5.054-1.316 6.93h-4.242v1.022h7.826v-1.022z"/>
<path d="m700.10512 306.557h-1.904v-4.13h1.904zm-3.78-8.386h1.764c-.378 2.128-1.022 4.088-2.002 5.418.168.266.392.882.462 1.12.28-.35.518-.742.756-1.162v5.068h.896v-1.12h2.828v-6.006h-2.814c.35-1.036.644-2.17.854-3.318h2.212v-.966h-4.956zm9.408 9.226v-4.186h1.806v4.186zm-2.758-4.186h1.848v4.186h-1.848zm1.848-5.054v4.088h-1.848v-4.088zm2.716 4.088h-1.806v-4.088h1.806zm-5.502-5.068v11.928h.938v-.742h4.564v.63h.98v-11.816z"/>
<path d="m747.87512 298.073v-.756h-8.386c.154-.238.308-.476.434-.728l-.854-.28c-.7 1.288-1.876 2.52-3.08 3.318.21.14.574.448.728.616.756-.56 1.554-1.316 2.226-2.17zm-1.218 1.358v-.7h-7.98v.7zm-5.138 8.414c1.19.42 2.73 1.036 3.528 1.4l.574-.602c-.84-.378-2.408-.966-3.542-1.33zm-.63-1.848c-.042.21-.112.392-.182.574h-4.046v.686h3.612c-.644.686-1.806 1.064-3.92 1.274.126.154.322.462.378.644 2.492-.308 3.78-.868 4.438-1.918h4.466v-.686h-4.144c.056-.182.112-.364.154-.574zm.014-.182h.672v-1.33h2.254v-.616h-2.254v-1.414h-.672v1.414h-2.282v.616h1.652c-.49.462-1.218.924-1.82 1.176.14.14.322.392.406.546.7-.364 1.512-.98 2.044-1.554zm-.392-2.408c-.21-.308-.658-.714-1.078-.994l-.504.308c.392.308.826.742 1.036 1.05zm2.478-1.05c-.238.308-.714.826-1.05 1.12l.49.252c.378-.266.798-.672 1.19-1.078zm-1.106 2.618c.504.322 1.106.784 1.428 1.078l.532-.406c-.308-.28-.952-.742-1.442-1.022zm-4.816-4.858v.742h3.584c-.112.224-.238.462-.378.672h-2.8v4.76h.784v-4.046h5.936v4.046h.812v-4.76h-3.906c.14-.21.294-.42.462-.672h4.34c.042 4.886.322 8.302 2.086 8.302.826 0 1.148-.476 1.288-2.282-.252-.07-.588-.266-.798-.462-.042 1.274-.154 1.778-.406 1.778-.952.014-1.232-3.136-1.162-8.078z"/>
</svg>